<?xml version="1.0" standalone="no"?>
<!DOCTYPE svg PUBLIC "-//W3C//DTD SVG 20010904//EN"
 "http://www.w3.org/TR/2001/REC-SVG-20010904/DTD/svg10.dtd">
<svg version="1.0" xmlns="http://www.w3.org/2000/svg"
 width="1280.000000pt" height="447.000000pt" viewBox="0 0 1280.000000 447.000000"
 preserveAspectRatio="xMidYMid meet">
<metadata>
Created by potrace 1.15, written by Peter Selinger 2001-2017
</metadata>
<g transform="translate(0.000000,447.000000) scale(0.100000,-0.100000)"
fill="#000000" stroke="none">
<path d="M5300 4444 c-85 -7 -173 -15 -195 -19 -39 -6 -145 -15 -675 -55 -146
-11 -281 -25 -300 -30 -19 -6 -91 -15 -160 -20 -69 -6 -150 -15 -180 -20 -30
-5 -149 -19 -265 -30 -115 -11 -232 -25 -260 -30 -27 -5 -106 -14 -175 -20
-69 -6 -141 -15 -160 -20 -19 -4 -87 -13 -150 -20 -63 -6 -128 -15 -145 -20
-16 -5 -82 -16 -145 -24 -138 -18 -370 -51 -460 -66 -36 -6 -222 -20 -415 -31
-330 -18 -773 -46 -1110 -69 -82 -5 -172 -15 -198 -20 -26 -6 -64 -10 -83 -10
-19 0 -67 -9 -107 -20 -75 -21 -107 -46 -107 -84 1 -66 20 -219 28 -229 5 -7
14 -26 20 -43 14 -44 86 -145 162 -228 36 -39 82 -92 103 -118 38 -47 122
-117 176 -147 159 -88 261 -126 361 -136 36 -4 85 -13 110 -20 50 -15 253 -35
352 -35 38 0 69 -5 77 -12 16 -17 1455 -17 1486 -1 21 12 433 39 442 29 9 -8
-26 -75 -69 -133 -21 -29 -38 -56 -38 -61 0 -4 -12 -24 -26 -43 -14 -19 -41
-65 -61 -104 -19 -38 -45 -83 -57 -100 -97 -134 -305 -518 -342 -635 -24 -75
-26 -88 -15 -124 7 -23 16 -61 21 -86 16 -86 77 -216 120 -255 11 -10 20 -23
20 -29 0 -6 -39 -56 -86 -111 -47 -55 -95 -118 -106 -140 -11 -22 -26 -47 -32
-55 -17 -21 -67 -144 -77 -188 -4 -21 -11 -50 -15 -65 -4 -16 -2 -45 4 -65 6
-21 16 -56 23 -80 21 -70 81 -130 179 -175 l85 -40 210 -8 c136 -5 292 -4 442
3 228 11 233 11 299 -11 41 -13 91 -40 128 -69 123 -95 240 -136 433 -152 113
-9 146 -8 220 5 142 27 205 53 332 139 34 23 60 34 70 30 9 -4 51 -17 94 -30
42 -13 114 -36 160 -50 45 -14 109 -33 142 -43 33 -10 67 -20 75 -24 36 -13
148 -49 185 -58 22 -5 72 -20 110 -33 185 -62 175 -60 313 -48 390 36 459 43
482 51 14 5 75 14 135 21 61 6 119 15 130 19 11 5 78 16 149 26 71 9 137 21
145 25 9 5 68 18 131 29 112 20 202 39 365 79 44 11 112 28 150 37 39 9 91 23
117 31 89 27 185 35 457 41 182 4 295 2 340 -5 36 -7 95 -16 131 -21 181 -26
227 -64 166 -138 -63 -76 -55 -108 33 -149 l56 -25 45 21 c38 17 78 22 245 30
370 18 1192 5 1250 -20 11 -5 110 -14 220 -20 189 -11 264 -16 665 -40 356
-22 649 -32 965 -33 l330 -2 -4 1693 c-3 1555 -2 1692 13 1692 13 0 16 11 16
53 l0 52 -482 1 c-266 0 -571 6 -678 12 -298 19 -495 29 -720 37 -113 4 -213
12 -224 17 -10 6 -247 11 -565 14 -448 3 -559 7 -621 20 -41 8 -110 20 -154
25 -75 10 -81 9 -132 -16 -59 -29 -92 -65 -101 -107 -9 -45 -20 -48 -134 -38
-57 6 -194 18 -304 28 -158 13 -207 21 -232 36 -28 17 -36 18 -70 7 -34 -11
-43 -10 -88 10 -27 12 -84 32 -125 45 -125 38 -273 100 -473 200 -16 8 -33 14
-38 14 -5 0 -54 20 -109 45 -55 25 -121 50 -147 55 -27 6 -61 17 -78 25 -33
15 -146 58 -265 100 -41 14 -83 30 -92 36 -10 5 -23 9 -30 9 -7 0 -67 25 -133
56 -66 31 -133 62 -150 69 -16 7 -50 21 -75 33 -25 11 -67 28 -95 37 -27 9
-59 21 -70 25 -11 5 -38 14 -60 20 -22 6 -49 16 -60 21 -25 12 -146 45 -240
65 -38 9 -86 20 -105 25 -39 10 -348 30 -437 28 -32 -1 -128 -7 -213 -15z"/>
</g>
</svg>
